<svg width="1920" height="1080" viewBox="0 0 1920 1080" fill="none" xmlns="http://www.w3.org/2000/svg">
<rect width="1920" height="1080" fill="white"/>
<g clip-path="url(#clip0_443_9690)">
<path d="M630.623 1038.24H586.918V1056.71H630.623V1038.24Z" fill="#EBEBEB"/>
<path d="M606.244 1061.53H562.539V1080H606.244V1061.53Z" fill="#EBEBEB"/>
<path d="M655 1061.53H611.295V1080H655V1061.53Z" fill="#EBEBEB"/>
<path d="M68.0821 1038.24H24.377V1056.71H68.0821V1038.24Z" fill="#EBEBEB"/>
<path d="M43.7052 1061.53H0V1080H43.7052V1061.53Z" fill="#DBDBDB"/>
<path d="M345.201 890.889H301.496V909.361H345.201V890.889Z" fill="#EBEBEB"/>
<path d="M320.824 914.181H277.119V932.653H320.824V914.181Z" fill="#DBDBDB"/>
<path d="M531.973 704.649H488.268V723.121H531.973V704.649Z" fill="#DBDBDB"/>
<path d="M369.58 914.181H325.875V932.653H369.58V914.181Z" fill="#EBEBEB"/>
<path d="M43.7052 606.017H0V624.489H43.7052V606.017Z" fill="#EBEBEB"/>
</g>
<path d="M68.0821 432.235H24.377V450.707H68.0821V432.235Z" fill="#EBEBEB"/>
<path d="M43.7052 455.528H0V474H43.7052V455.528Z" fill="#DBDBDB"/>
<path d="M345.201 284.889H301.496V303.361H345.201V284.889Z" fill="#EBEBEB"/>
<path d="M320.824 308.181H277.119V326.653H320.824V308.181Z" fill="#DBDBDB"/>
<path d="M531.973 98.6494H488.268V117.121H531.973V98.6494Z" fill="#DBDBDB"/>
<path d="M369.58 308.181H325.875V326.653H369.58V308.181Z" fill="#EBEBEB"/>
<path d="M628.098 0H584.393V18.472H628.098V0Z" fill="#EBEBEB"/>
<path d="M652.475 23.292H608.77V41.764H652.475V23.292Z" fill="#DBDBDB"/>
<path d="M43.7052 0.0166016H0V18.4886H43.7052V0.0166016Z" fill="#EBEBEB"/>
<g clip-path="url(#clip1_443_9690)">
<path d="M1895.62 432.235H1851.92V450.707H1895.62V432.235Z" fill="#EBEBEB"/>
<path d="M1871.24 455.528H1827.54V474H1871.24V455.528Z" fill="#EBEBEB"/>
<path d="M1920 455.528H1876.29V474H1920V455.528Z" fill="#EBEBEB"/>
<path d="M1610.2 284.889H1566.5V303.361H1610.2V284.889Z" fill="#EBEBEB"/>
<path d="M1585.82 308.181H1542.12V326.653H1585.82V308.181Z" fill="#DBDBDB"/>
<path d="M1796.97 98.6494H1753.27V117.121H1796.97V98.6494Z" fill="#DBDBDB"/>
<path d="M1634.58 308.181H1590.88V326.653H1634.58V308.181Z" fill="#EBEBEB"/>
<path d="M1893.1 0H1849.39V18.472H1893.1V0Z" fill="#EBEBEB"/>
<path d="M1917.47 23.292H1873.77V41.764H1917.47V23.292Z" fill="#DBDBDB"/>
<path d="M1308.71 0.0166016H1265V18.4886H1308.71V0.0166016Z" fill="#EBEBEB"/>
</g>
<g clip-path="url(#clip2_443_9690)">
<path d="M1895.62 1038.24H1851.92V1056.71H1895.62V1038.24Z" fill="#EBEBEB"/>
<path d="M1871.24 1061.53H1827.54V1080H1871.24V1061.53Z" fill="#EBEBEB"/>
<path d="M1920 1061.53H1876.29V1080H1920V1061.53Z" fill="#EBEBEB"/>
<path d="M1333.08 1038.24H1289.38V1056.71H1333.08V1038.24Z" fill="#EBEBEB"/>
<path d="M1308.71 1061.53H1265V1080H1308.71V1061.53Z" fill="#DBDBDB"/>
<path d="M1610.2 890.889H1566.5V909.361H1610.2V890.889Z" fill="#EBEBEB"/>
<path d="M1585.82 914.181H1542.12V932.653H1585.82V914.181Z" fill="#DBDBDB"/>
<path d="M1796.97 704.649H1753.27V723.121H1796.97V704.649Z" fill="#DBDBDB"/>
<path d="M1634.58 914.181H1590.88V932.653H1634.58V914.181Z" fill="#EBEBEB"/>
<path d="M1893.1 606H1849.39V624.472H1893.1V606Z" fill="#EBEBEB"/>
<path d="M1917.47 629.292H1873.77V647.764H1917.47V629.292Z" fill="#DBDBDB"/>
<path d="M1308.71 606.017H1265V624.489H1308.71V606.017Z" fill="#EBEBEB"/>
</g>
<defs>
<clipPath id="clip0_443_9690">
<rect width="655" height="474" fill="white" transform="translate(0 606)"/>
</clipPath>
<clipPath id="clip1_443_9690">
<rect width="655" height="474" fill="white" transform="translate(1265)"/>
</clipPath>
<clipPath id="clip2_443_9690">
<rect width="655" height="474" fill="white" transform="translate(1265 606)"/>
</clipPath>
</defs>
</svg>
