<svg width="182" height="50" viewBox="0 0 182 50" fill="none" xmlns="http://www.w3.org/2000/svg">
<g clip-path="url(#clip0_24_694)">
<path d="M64.9499 17.7836C64.4153 18.7812 63.6268 19.5552 62.5846 20.1004C61.5422 20.6455 60.2948 20.918 58.8421 20.918H54.6567V7.63379H58.8421C60.3002 7.63379 61.5477 7.90089 62.5846 8.43509C63.6214 8.9693 64.4099 9.73789 64.9499 10.7354C65.4846 11.733 65.7546 12.9159 65.7546 14.2732C65.7546 15.6141 65.4846 16.7861 64.9499 17.7836ZM62.6548 18.0398C63.5621 17.1458 64.0157 15.8921 64.0157 14.2678C64.0157 12.6488 63.5621 11.3841 62.6602 10.4901C61.7583 9.59071 60.4406 9.14373 58.7124 9.14373H56.3579V19.3809H58.7124C60.4298 19.3809 61.7421 18.9339 62.6548 18.0398Z" fill="#FC3F37"/>
<path d="M77.4091 16.1151H69.2113C69.249 17.298 69.5839 18.1811 70.2103 18.7753C70.8368 19.3639 71.609 19.6583 72.5163 19.6583C73.3371 19.6583 74.0285 19.4458 74.5793 19.026C75.1356 18.6063 75.4703 18.0448 75.5945 17.3362H77.4037C77.2795 18.0503 77.0041 18.6935 76.572 19.2604C76.14 19.8273 75.5838 20.2688 74.8979 20.5795C74.212 20.8903 73.4398 21.0483 72.5811 21.0483C71.5983 21.0483 70.7233 20.8357 69.9673 20.4052C69.2058 19.98 68.6118 19.3639 68.1852 18.5681C67.7586 17.7723 67.5425 16.8292 67.5425 15.7499C67.5425 14.6706 67.7586 13.7276 68.1852 12.9208C68.6118 12.114 69.2113 11.4981 69.9673 11.0729C70.7287 10.6477 71.5983 10.4297 72.5811 10.4297C73.5748 10.4297 74.4443 10.6422 75.1842 11.0729C75.924 11.4981 76.4911 12.0704 76.8853 12.79C77.2795 13.5041 77.4739 14.2999 77.4739 15.1667C77.4847 15.5374 77.4577 15.8535 77.4091 16.1151ZM75.3894 13.3624C75.1031 12.8445 74.7089 12.4629 74.212 12.2122C73.7152 11.9615 73.1698 11.836 72.5865 11.836C71.6522 11.836 70.8692 12.1305 70.2319 12.7137C69.5947 13.2969 69.2544 14.1582 69.2058 15.2865H75.762C75.7998 14.5234 75.6756 13.8802 75.3894 13.3624Z" fill="#FC3F37"/>
<path d="M83.6837 19.0971L86.8592 10.5771H88.6899L84.672 20.9286H82.6576L78.6396 10.5771H80.4704L83.6837 19.0971Z" fill="#FC3F37"/>
<path d="M67.2461 38.5684C66.6034 39.7622 65.6638 40.6889 64.4162 41.343C63.1742 41.9972 61.6783 42.3242 59.9339 42.3242H54.9277V26.418H59.9339C61.6783 26.418 63.1687 26.7396 64.4162 27.3774C65.6584 28.0152 66.6034 28.9364 67.2461 30.1302C67.8887 31.324 68.2073 32.7357 68.2073 34.3602C68.2073 35.9683 67.8833 37.3747 67.2461 38.5684ZM64.4973 38.8737C65.5828 37.8052 66.1282 36.3008 66.1282 34.3602C66.1282 32.4196 65.5882 30.9097 64.5081 29.8359C63.428 28.762 61.8511 28.2223 59.7827 28.2223H56.969V40.4763H59.7827C61.8348 40.4763 63.4064 39.9421 64.4973 38.8737Z" fill="black"/>
<path d="M70.9781 25.3928C71.232 25.1584 71.5668 25.0439 71.9826 25.0439C72.3985 25.0439 72.7333 25.1584 72.9871 25.3928C73.2409 25.6272 73.3651 25.9324 73.3651 26.3086C73.3651 26.6847 73.2409 26.99 72.9871 27.2244C72.7333 27.4588 72.3985 27.5732 71.9826 27.5732C71.5668 27.5732 71.232 27.4588 70.9781 27.2244C70.7243 26.99 70.6001 26.6847 70.6001 26.3086C70.6001 25.9324 70.7243 25.6272 70.9781 25.3928ZM72.9871 29.939V42.3238H70.9511V29.939H72.9871Z" fill="black"/>
<path d="M94.7932 31.1224C95.6626 32.0491 96.1001 33.3846 96.1001 35.1289V42.3243H94.0641V35.3088C94.0641 34.0877 93.7671 33.1557 93.1838 32.5124C92.5951 31.8637 91.7851 31.5421 90.7591 31.5421C89.6844 31.5421 88.8257 31.9019 88.1777 32.6159C87.5295 33.33 87.2055 34.3822 87.2055 35.7612V42.3243H85.1696V35.3088C85.1696 34.0877 84.8725 33.1557 84.2731 32.5124C83.6791 31.8637 82.8744 31.5421 81.8591 31.5421C80.7736 31.5421 79.9041 31.9019 79.2561 32.6159C78.608 33.33 78.284 34.3822 78.284 35.7612V42.3243H76.248V29.9395H78.284V32.7577C78.581 31.782 79.1157 31.0297 79.8825 30.5119C80.6494 29.9941 81.535 29.7324 82.5288 29.7324C83.571 29.7324 84.4783 29.9995 85.2452 30.5337C86.012 31.0679 86.5629 31.8528 86.8869 32.894C87.2271 31.8855 87.8049 31.106 88.6096 30.5609C89.4143 30.0104 90.3216 29.7379 91.3369 29.7379C92.768 29.7379 93.9183 30.2011 94.7932 31.1224Z" fill="black"/>
<path d="M110.45 36.5733H100.637C100.681 37.9851 101.081 39.048 101.831 39.7567C102.581 40.4653 103.505 40.8196 104.591 40.8196C105.574 40.8196 106.399 40.5689 107.059 40.0619C107.723 39.5604 108.128 38.8845 108.279 38.0451H110.445C110.294 38.9008 109.964 39.6695 109.451 40.3454C108.938 41.0213 108.269 41.55 107.453 41.9262C106.632 42.3023 105.708 42.4931 104.683 42.4931C103.505 42.4931 102.463 42.2369 101.556 41.7245C100.648 41.2121 99.9355 40.4817 99.4224 39.5223C98.9093 38.5683 98.6499 37.4454 98.6499 36.1481C98.6499 34.8562 98.9093 33.7278 99.4224 32.763C99.9355 31.8036 100.648 31.0622 101.556 30.5498C102.463 30.0374 103.505 29.7812 104.683 29.7812C105.876 29.7812 106.913 30.0374 107.798 30.5498C108.684 31.0622 109.365 31.7436 109.834 32.6049C110.305 33.4607 110.537 34.4092 110.537 35.4449C110.542 35.881 110.51 36.2571 110.45 36.5733ZM108.036 33.2808C107.696 32.6649 107.226 32.207 106.627 31.9072C106.033 31.6073 105.385 31.4547 104.683 31.4547C103.565 31.4547 102.625 31.8036 101.869 32.5013C101.113 33.1991 100.697 34.2293 100.637 35.5812H108.485C108.527 34.6599 108.382 33.8968 108.036 33.2808Z" fill="black"/>
<path d="M123.124 31.1218C124.004 32.0485 124.442 33.3841 124.442 35.1284V42.3237H122.406V35.3083C122.406 34.0764 122.092 33.1279 121.466 32.4683C120.839 31.8087 119.991 31.4762 118.917 31.4762C117.799 31.4762 116.908 31.8413 116.233 32.5718C115.563 33.3022 115.228 34.3652 115.228 35.7661V42.3237H113.192V29.939H115.228V32.8717C115.541 31.8631 116.098 31.0891 116.891 30.5495C117.685 30.0098 118.609 29.7373 119.651 29.7373C121.088 29.7373 122.243 30.2007 123.124 31.1218Z" fill="black"/>
<path d="M134.757 30.8765C135.599 31.6069 136.106 32.5881 136.284 33.82H134.34C134.248 33.0841 133.952 32.4791 133.433 32.0049C132.92 31.5306 132.229 31.2962 131.365 31.2962C130.636 31.2962 130.063 31.4707 129.653 31.8249C129.243 32.1793 129.037 32.6536 129.037 33.2586C129.037 33.711 129.173 34.0762 129.454 34.3543C129.734 34.6323 130.074 34.8449 130.48 34.9866C130.89 35.1283 131.452 35.2863 132.164 35.4499C133.071 35.6625 133.806 35.8751 134.368 36.0932C134.924 36.3112 135.404 36.66 135.798 37.1397C136.193 37.6194 136.393 38.2681 136.393 39.0803C136.393 40.0887 136.015 40.9065 135.264 41.5387C134.514 42.1711 133.509 42.4872 132.256 42.4872C130.798 42.4872 129.605 42.133 128.681 41.4243C127.757 40.7157 127.212 39.7345 127.05 38.4698H129.016C129.091 39.2221 129.416 39.8326 129.988 40.2959C130.56 40.7647 131.316 40.9937 132.256 40.9937C132.958 40.9937 133.504 40.8137 133.898 40.454C134.292 40.0942 134.491 39.62 134.491 39.0313C134.491 38.5516 134.351 38.1645 134.066 37.8811C133.779 37.5976 133.433 37.3796 133.012 37.2269C132.596 37.0744 132.024 36.9217 131.289 36.7527C130.382 36.5402 129.653 36.333 129.108 36.1204C128.562 35.9078 128.103 35.5753 127.72 35.1174C127.342 34.6595 127.148 34.0381 127.148 33.2531C127.148 32.2175 127.525 31.3779 128.287 30.7348C129.048 30.097 130.08 29.7754 131.392 29.7754C132.801 29.7808 133.914 30.146 134.757 30.8765Z" fill="black"/>
<path d="M139.152 25.3928C139.406 25.1584 139.741 25.0439 140.157 25.0439C140.573 25.0439 140.908 25.1584 141.161 25.3928C141.415 25.6272 141.54 25.9324 141.54 26.3086C141.54 26.6847 141.415 26.99 141.161 27.2244C140.908 27.4588 140.573 27.5732 140.157 27.5732C139.741 27.5732 139.406 27.4588 139.152 27.2244C138.899 26.99 138.775 26.6847 138.775 26.3086C138.775 25.9324 138.899 25.6272 139.152 25.3928ZM141.161 29.939V42.3238H139.125V29.939H141.161Z" fill="black"/>
<path d="M153.157 30.5498C154.085 31.0622 154.82 31.7981 155.35 32.763C155.878 33.7278 156.144 34.8562 156.144 36.1481C156.144 37.4399 155.878 38.5683 155.35 39.5223C154.82 40.4762 154.091 41.2121 153.157 41.7245C152.223 42.2369 151.17 42.4931 149.992 42.4931C148.815 42.4931 147.762 42.2369 146.828 41.7245C145.893 41.2121 145.164 40.4817 144.624 39.5223C144.089 38.5683 143.82 37.4454 143.82 36.1481C143.82 34.8562 144.089 33.7278 144.624 32.763C145.159 31.8036 145.893 31.0622 146.828 30.5498C147.756 30.0374 148.815 29.7812 149.992 29.7812C151.17 29.7812 152.223 30.0374 153.157 30.5498ZM147.967 32.0816C147.346 32.4141 146.849 32.9211 146.471 33.6025C146.093 34.2892 145.898 35.1342 145.898 36.1426C145.898 37.1347 146.088 37.9742 146.471 38.661C146.849 39.3478 147.351 39.8548 147.967 40.1819C148.583 40.5144 149.258 40.6779 149.992 40.6779C150.726 40.6779 151.396 40.5144 152.018 40.1819C152.633 39.8493 153.135 39.3424 153.513 38.661C153.891 37.9742 154.085 37.1401 154.085 36.1426C154.085 35.1342 153.897 34.2892 153.513 33.6025C153.135 32.9156 152.633 32.4087 152.018 32.0816C151.396 31.7491 150.726 31.5855 149.992 31.5855C149.258 31.5855 148.588 31.7545 147.967 32.0816Z" fill="black"/>
<path d="M168.72 31.1218C169.601 32.0485 170.038 33.3841 170.038 35.1284V42.3237H168.002V35.3083C168.002 34.0764 167.689 33.1279 167.063 32.4683C166.436 31.8087 165.588 31.4762 164.514 31.4762C163.396 31.4762 162.504 31.8413 161.829 32.5718C161.159 33.3022 160.825 34.3652 160.825 35.7661V42.3237H158.789V29.939H160.825V32.8717C161.138 31.8631 161.695 31.0891 162.489 30.5495C163.287 30.0098 164.206 29.7373 165.248 29.7373C166.69 29.7373 167.846 30.2007 168.72 31.1218Z" fill="black"/>
<path d="M180.358 30.8765C181.201 31.6069 181.709 32.5881 181.887 33.82H179.943C179.851 33.0841 179.554 32.4791 179.035 32.0049C178.523 31.5306 177.832 31.2962 176.967 31.2962C176.238 31.2962 175.666 31.4707 175.256 31.8249C174.845 32.1793 174.64 32.6536 174.64 33.2586C174.64 33.711 174.774 34.0762 175.055 34.3543C175.336 34.6323 175.677 34.8449 176.081 34.9866C176.492 35.1283 177.053 35.2863 177.767 35.4499C178.674 35.6625 179.408 35.8751 179.97 36.0932C180.526 36.3112 181.007 36.66 181.401 37.1397C181.795 37.6194 181.995 38.2681 181.995 39.0803C181.995 40.0887 181.617 40.9065 180.867 41.5387C180.115 42.1711 179.111 42.4872 177.858 42.4872C176.4 42.4872 175.206 42.133 174.283 41.4243C173.36 40.7157 172.814 39.7345 172.652 38.4698H174.618C174.693 39.2221 175.017 39.8326 175.59 40.2959C176.163 40.7647 176.919 40.9937 177.858 40.9937C178.561 40.9937 179.106 40.8137 179.5 40.454C179.894 40.0942 180.094 39.62 180.094 39.0313C180.094 38.5516 179.954 38.1645 179.667 37.8811C179.382 37.5976 179.035 37.3796 178.614 37.2269C178.199 37.0744 177.626 36.9217 176.892 36.7527C175.985 36.5402 175.256 36.333 174.71 36.1204C174.164 35.9078 173.706 35.5753 173.321 35.1174C172.944 34.6595 172.749 34.0381 172.749 33.2531C172.749 32.2175 173.128 31.3779 173.889 30.7348C174.65 30.097 175.681 29.7754 176.994 29.7754C178.404 29.7808 179.516 30.146 180.358 30.8765Z" fill="black"/>
<path d="M17.3678 0.732422V9.55223H8.6839V40.5633H17.3678V49.3831H0V0.732422H17.3678Z" fill="#18313A"/>
<path d="M22.4175 1.07617V9.81966C29.1519 11.7711 33.7908 17.9854 33.7963 25.0554C33.7963 32.2944 28.9898 38.3996 22.4175 40.2911V49.0401C33.8124 47.1104 42.4963 37.1076 42.4963 25.0554C42.4963 13.0085 33.8124 3.00585 22.4175 1.07617Z" fill="#18313A"/>
<path d="M14.5269 14.8125H17.8481C23.4538 14.8125 28.0009 19.4022 28.0009 25.0605C28.0009 30.7186 23.4592 35.3084 17.8535 35.3084H14.5269V14.8125Z" fill="#FC3F37"/>
</g>
<defs>
<clipPath id="clip0_24_694">
<rect width="182" height="48.6507" fill="white" transform="translate(0 0.732422)"/>
</clipPath>
</defs>
</svg>
