<svg width="48" height="48" viewBox="0 0 48 48" fill="none" xmlns="http://www.w3.org/2000/svg">
<path d="M24 42C33.9411 42 42 33.9411 42 24C42 14.0589 33.9411 6 24 6C14.0589 6 6 14.0589 6 24C6 33.9411 14.0589 42 24 42Z" stroke="#393535" stroke-width="3" stroke-linecap="round" stroke-linejoin="round"/>
<path d="M24 30C28.1421 30 31.5 26.6421 31.5 22.5C31.5 18.3579 28.1421 15 24 15C19.8579 15 16.5 18.3579 16.5 22.5C16.5 26.6421 19.8579 30 24 30Z" stroke="#393535" stroke-width="3" stroke-linecap="round" stroke-linejoin="round"/>
<path d="M11.9629 37.3877C13.0915 35.1647 14.8136 33.2977 16.9383 31.9935C19.063 30.6894 21.5073 29.999 24.0004 29.999C26.4934 29.999 28.9378 30.6894 31.0625 31.9935C33.1872 33.2977 34.9093 35.1647 36.0379 37.3877" stroke="#393535" stroke-width="3" stroke-linecap="round" stroke-linejoin="round"/>
</svg>
