<svg width="22" height="22" viewBox="0 0 22 22" fill="none" xmlns="http://www.w3.org/2000/svg">
<path fill-rule="evenodd" clip-rule="evenodd" d="M4.07349 15.9519C2.92036 14.7745 2.13825 13.2844 1.82416 11.6666C1.50747 10.0442 1.67009 8.36472 2.29216 6.83325C2.90891 5.31037 3.96188 4.00367 5.31883 3.07725C8.07196 1.19691 11.6964 1.19691 14.4495 3.07725C15.8064 4.00367 16.8594 5.31037 17.4762 6.83325C18.0982 8.36472 18.2608 10.0442 17.9442 11.6666C17.6301 13.2844 16.848 14.7745 15.6948 15.9519C14.1677 17.519 12.0723 18.4029 9.88416 18.4029C7.69601 18.4029 5.60062 17.519 4.07349 15.9519V15.9519Z" stroke="#C6C6C6" stroke-width="2" stroke-linecap="round" stroke-linejoin="round"/>
<path d="M9.89365 4.60454C9.34444 4.66274 8.9464 5.15514 9.00459 5.70435C9.06279 6.25356 9.55518 6.6516 10.1044 6.59341L9.89365 4.60454ZM12.3621 7.92349C12.5775 8.43208 13.1643 8.66983 13.6729 8.45452C14.1815 8.23921 14.4192 7.65238 14.2039 7.14379L12.3621 7.92349ZM16.5228 15.1166C16.132 14.7264 15.4988 14.727 15.1086 15.1178C14.7184 15.5087 14.719 16.1419 15.1099 16.532L16.5228 15.1166ZM19.6272 21.0414C20.0181 21.4316 20.6512 21.431 21.0414 21.0401C21.4316 20.6493 21.431 20.0161 21.0402 19.6259L19.6272 21.0414ZM10.1044 6.59341C11.0677 6.49133 11.9845 7.0314 12.3621 7.92349L14.2039 7.14379C13.4829 5.44071 11.7328 4.40967 9.89365 4.60454L10.1044 6.59341ZM15.1099 16.532L19.6272 21.0414L21.0402 19.6259L16.5228 15.1166L15.1099 16.532Z" fill="#C6C6C6"/>
</svg>
