<svg width="30" height="30" viewBox="0 0 30 30" fill="none" xmlns="http://www.w3.org/2000/svg">
<path d="M22.754 17.0175L23.4222 16.2735L22.754 17.0175ZM9.75 10C9.75 7.79086 11.5409 6 13.75 6V4C10.4363 4 7.75 6.68629 7.75 10H9.75ZM9.75 14.5991V10H7.75V14.5991H9.75ZM7.25 19.25C7.25 18.659 7.50504 18.129 7.91424 17.7614L6.57777 16.2735C5.76411 17.0044 5.25 18.0678 5.25 19.25H7.25ZM8.75 20.25H8.25V22.25H8.75V20.25ZM21.25 20.25H8.75V22.25H21.25V20.25ZM21.75 20.25H21.25V22.25H21.75V20.25ZM22.0858 17.7614C22.495 18.129 22.75 18.659 22.75 19.25H24.75C24.75 18.0678 24.2359 17.0044 23.4222 16.2735L22.0858 17.7614ZM20.25 10V14.5991H22.25V10H20.25ZM16.25 6C18.4591 6 20.25 7.79086 20.25 10H22.25C22.25 6.68629 19.5637 4 16.25 4V6ZM13.75 6H16.25V4H13.75V6ZM23.4222 16.2735C23.0664 15.9539 22.7613 15.6552 22.5444 15.3502C22.3319 15.0515 22.25 14.8104 22.25 14.5991H20.25C20.25 15.3646 20.5567 16.0063 20.9146 16.5094C21.268 17.0062 21.7149 17.4283 22.0858 17.7614L23.4222 16.2735ZM5.25 19.25C5.25 20.9069 6.59315 22.25 8.25 22.25V20.25C7.69772 20.25 7.25 19.8023 7.25 19.25H5.25ZM21.75 22.25C23.4069 22.25 24.75 20.9069 24.75 19.25H22.75C22.75 19.8023 22.3023 20.25 21.75 20.25V22.25ZM7.75 14.5991C7.75 14.8104 7.66806 15.0515 7.45565 15.3502C7.2387 15.6552 6.93361 15.9539 6.57777 16.2735L7.91424 17.7614C8.28515 17.4283 8.73205 17.0062 9.08542 16.5094C9.44331 16.0063 9.75 15.3646 9.75 14.5991H7.75Z" fill="#676363"/>
<path d="M17.247 24.8459C17.039 25.2723 16.714 25.6307 16.31 25.8793C15.9059 26.1279 15.4395 26.2564 14.9651 26.2498C14.4907 26.2431 14.0281 26.1017 13.6311 25.8419C13.2341 25.5821 12.9193 25.2148 12.7233 24.7828" stroke="#676363" stroke-width="2" stroke-linecap="round" stroke-linejoin="round"/>
<path d="M15 3.75V5" stroke="#676363" stroke-width="2" stroke-linecap="round" stroke-linejoin="round"/>
</svg>
