<svg width="83" height="83" viewBox="0 0 83 83" fill="none" xmlns="http://www.w3.org/2000/svg">
<path fill-rule="evenodd" clip-rule="evenodd" d="M41.498 0.39209C18.7168 0.39209 0.248047 18.8608 0.248047 41.6421C0.248047 64.4233 18.7168 82.8921 41.498 82.8921C64.2793 82.8921 82.748 64.4233 82.748 41.6421C82.748 18.8608 64.2793 0.39209 41.498 0.39209ZM59.378 34.6671C59.7073 34.2907 59.9579 33.8524 60.1152 33.3777C60.2726 32.9031 60.3334 32.4018 60.2941 31.9033C60.2548 31.4048 60.1162 30.9192 59.8865 30.4751C59.6567 30.0309 59.3405 29.6372 58.9564 29.3171C58.5722 28.997 58.1279 28.757 57.6497 28.6111C57.1714 28.4652 56.6688 28.4165 56.1714 28.4677C55.674 28.5189 55.1918 28.6691 54.7533 28.9095C54.3148 29.1498 53.9288 29.4754 53.618 29.8671L37.493 49.2133L29.1493 40.8658C28.442 40.1827 27.4948 39.8048 26.5115 39.8133C25.5283 39.8219 24.5878 40.2162 23.8925 40.9115C23.1972 41.6068 22.8028 42.5473 22.7943 43.5306C22.7857 44.5138 23.1637 45.4611 23.8468 46.1683L35.0968 57.4183C35.4653 57.7866 35.9064 58.074 36.3921 58.2623C36.8778 58.4506 37.3974 58.5357 37.9178 58.512C38.4382 58.4884 38.948 58.3566 39.4146 58.125C39.8812 57.8935 40.2945 57.5672 40.628 57.1671L59.378 34.6671Z" fill="#84D65A"/>
</svg>
