<svg width="91" height="91" viewBox="0 0 91 91" fill="none" xmlns="http://www.w3.org/2000/svg">
<path fill-rule="evenodd" clip-rule="evenodd" d="M45.5002 4.40259C22.6491 4.40259 4.12366 22.928 4.12366 45.7791C4.12366 68.6302 22.6491 87.1556 45.5002 87.1556C68.3513 87.1556 86.8767 68.6302 86.8767 45.7791C86.8767 22.928 68.3513 4.40259 45.5002 4.40259ZM63.435 38.7827C63.7653 38.4052 64.0167 37.9655 64.1745 37.4894C64.3323 37.0133 64.3933 36.5104 64.3539 36.0104C64.3144 35.5104 64.1754 35.0233 63.945 34.5778C63.7146 34.1323 63.3973 33.7374 63.012 33.4163C62.6267 33.0952 62.1811 32.8545 61.7013 32.7081C61.2216 32.5618 60.7174 32.5129 60.2185 32.5643C59.7196 32.6157 59.236 32.7664 58.7961 33.0074C58.3563 33.2485 57.9691 33.5751 57.6574 33.968L41.4829 53.3736L33.1136 45.0005C32.4041 44.3153 31.454 43.9362 30.4677 43.9447C29.4815 43.9533 28.538 44.3489 27.8406 45.0463C27.1432 45.7437 26.7476 46.6871 26.739 47.6734C26.7305 48.6597 27.1096 49.6098 27.7948 50.3192L39.0793 61.6038C39.4489 61.9731 39.8914 62.2614 40.3786 62.4503C40.8658 62.6392 41.387 62.7245 41.909 62.7008C42.4309 62.6771 42.9423 62.5449 43.4103 62.3126C43.8784 62.0803 44.2929 61.7531 44.6275 61.3517L63.435 38.7827Z" fill="#CF0000"/>
</svg>
