<svg width="24" height="24" viewBox="0 0 24 24" fill="none" xmlns="http://www.w3.org/2000/svg">
<path d="M12 4.00009H6C4.89543 4.00009 4 4.89552 4 6.00009V18.0001C4 19.1047 4.89543 20.0001 6 20.0001H18C19.1046 20.0001 20 19.1047 20 18.0001V12.0001M18.4142 8.4143L19.5 7.32854C20.281 6.54749 20.281 5.28117 19.5 4.50012C18.7189 3.71907 17.4526 3.71907 16.6715 4.50013L15.5858 5.58587M18.4142 8.4143L12.3779 14.4507C12.0987 14.7299 11.7431 14.9202 11.356 14.9976L8.41422 15.586L9.00257 12.6442C9.08001 12.257 9.27032 11.9014 9.54951 11.6222L15.5858 5.58587M18.4142 8.4143L15.5858 5.58587" stroke="#18313A" stroke-width="2" stroke-linecap="round" stroke-linejoin="round"/>
</svg>
